<?xml version="1.0"?>
<svg xmlns="http://www.w3.org/2000/svg" width="45" height="36" viewBox="0 0 45 36">
    <g fill="#FFF" fill-rule="evenodd">
        <path d="M10.65 28.175V25H0v3.175h3.123v7.854h4.404v-7.854h3.123zm5.49 1.26l-2.244 6.594H9.592L13.81 25h4.658l4.219 11.029h-4.305l-2.243-6.595zm16.143-1.26V25h-10.65v3.175h3.122v7.854h4.405v-7.854h3.123zm5.489 1.26l-2.244 6.594h-4.304L35.443 25H40.1l4.219 11.029h-4.304l-2.244-6.595zM21.753 0c6.429 0 11.919 2.75 13.931 6.568-4.608-1.083-9.748-1.533-12.012-1.641-.595-.029-1.246.283-1.246.944V19.55h-1.312V5.871c0-.661-.62-.973-1.215-.944-2.276.108-7.46.564-12.087 1.658C9.816 2.76 15.313 0 21.752 0zm14.542 8.137c.138.534.21 1.083.21 1.643 0 4.285-4.193 7.941-9.998 9.258l-1.97-9.513c-.2-.966-.431-2.746 1.063-2.723 3.574.056 7.165.698 10.695 1.335zM17.06 19.052C11.224 17.748 7 14.08 7 9.78c0-.555.072-1.1.207-1.63 3.553-.643 7.167-1.29 10.764-1.348 1.494-.023 1.263 1.758 1.063 2.723l-1.973 9.527z"/>
    </g>
</svg>
