<?xml version="1.0" encoding="UTF-8"?>
<svg width="26px" height="17px" viewBox="0 0 26 17" version="1.1" xmlns="http://www.w3.org/2000/svg" xmlns:xlink="http://www.w3.org/1999/xlink">
    <!-- Generator: Sketch 51.1 (57501) - http://www.bohemiancoding.com/sketch -->
    <title>G+ white</title>
    <desc>Created with Sketch.</desc>
    <defs></defs>
    <g id="Page-1" stroke="none" stroke-width="1" fill="none" fill-rule="evenodd">
        <g id="Artboard" transform="translate(-141.000000, -299.000000)" fill-rule="nonzero" stroke="#FFFFFF">
            <g id="G+-white" transform="translate(142.000000, 300.000000)">
                <path d="M7.62352941,6.11176471 L7.62352941,9.12941176 C7.62352941,9.12941176 10.5470588,9.12352941 11.7411765,9.12352941 C11.0941176,11.0764706 10.0941176,12.1411765 7.62352941,12.1411765 C5.12352941,12.1411765 3.17647059,10.1176471 3.17647059,7.61764706 C3.17647059,5.11764706 5.12941176,3.09411765 7.62352941,3.09411765 C8.94705882,3.09411765 9.8,3.55882353 10.5823529,4.20588235 C11.2117647,3.57647059 11.1588235,3.48823529 12.7529412,1.98235294 C11.4,0.752941176 9.6,0 7.62941176,0 C3.42352941,0 0.0117647059,3.41176471 0.0117647059,7.61764706 C0.0117647059,11.8235294 3.42352941,15.2352941 7.62941176,15.2352941 C13.9176471,15.2352941 15.4529412,9.75882353 14.9411765,6.11176471 C13.4529412,6.11176471 7.62352941,6.11176471 7.62352941,6.11176471 Z M21.3529412,6.25882353 L21.3529412,3.61764706 L19.4705882,3.61764706 L19.4705882,6.25882353 L16.7588235,6.25882353 L16.7588235,8.14117647 L19.4705882,8.14117647 L19.4705882,10.8529412 L21.3529412,10.8529412 L21.3529412,8.14117647 L23.9941176,8.14117647 L23.9941176,6.25882353 L21.3529412,6.25882353 Z" id="XMLID_31_"></path>
            </g>
        </g>
    </g>
</svg>