<?xml version="1.0" encoding="UTF-8"?>
<svg width="24px" height="23px" viewBox="0 0 24 23" version="1.1" xmlns="http://www.w3.org/2000/svg" xmlns:xlink="http://www.w3.org/1999/xlink">
    <!-- Generator: Sketch 50 (54983) - http://www.bohemiancoding.com/sketch -->
    <title>LinkedIn_3_</title>
    <desc>Created with Sketch.</desc>
    <defs></defs>
    <g id="Page-1" stroke="none" stroke-width="1" fill="none" fill-rule="evenodd" stroke-linecap="round" stroke-linejoin="round">
        <g id="Salt-Story-Desktop" transform="translate(-307.000000, -1210.000000)" stroke="#FFFFFF">
            <g id="Shaerd" transform="translate(279.000000, 1128.000000)">
                <path d="M51,95.8885862 L51,104.022517 L46.2847931,104.022517 L46.2847931,96.4336552 C46.2847931,94.5272414 45.6024138,93.2262069 43.8962759,93.2262069 C42.5922069,93.2262069 41.8172759,94.1031724 41.4758966,94.9505517 C41.3514828,95.2536207 41.3196207,95.6757931 41.3196207,96.1006207 L41.3196207,104.022138 L36.6036552,104.022138 C36.6036552,104.022138 36.6666207,91.1692069 36.6036552,89.8378276 L41.3196207,89.8378276 L41.3196207,91.8477931 C41.3105172,91.8633448 41.298,91.8792759 41.2888966,91.894069 L41.3196207,91.894069 L41.3196207,91.8477931 C41.9454828,90.8832069 43.0652069,89.5044138 45.5701724,89.5044138 C48.6736897,89.5047931 51,91.5314483 51,95.8885862 Z M31.4805004,83 C29.9811303,83 29,84.0644991 29,85.4643726 C29,86.8341044 29.9522216,87.9310345 31.4223306,87.9310345 L31.4519443,87.9310345 C32.9798705,87.9310345 33.9310345,86.8341044 33.9310345,85.4643726 C33.9024784,84.0644991 32.980223,83 31.4805004,83 Z M29.2795517,104.022138 L33.9947586,104.022138 L33.9947586,89.8382069 L29.2795517,89.8382069 L29.2795517,104.022138 Z" id="LinkedIn_3_"></path>
            </g>
        </g>
    </g>
</svg>