<?xml version="1.0" encoding="UTF-8"?>
<svg width="25px" height="25px" viewBox="0 0 25 25" version="1.1" xmlns="http://www.w3.org/2000/svg" xmlns:xlink="http://www.w3.org/1999/xlink">
    <!-- Generator: Sketch 50 (54983) - http://www.bohemiancoding.com/sketch -->
    <title>if_Whatsapp_853339</title>
    <desc>Created with Sketch.</desc>
    <defs></defs>
    <g id="Page-1" stroke="none" stroke-width="1" fill="none" fill-rule="evenodd">
        <g id="Salt-Story-Desktop" transform="translate(-306.000000, -1310.000000)" stroke="#FFFFFF">
            <g id="Shaerd" transform="translate(279.000000, 1128.000000)">
                <g id="if_Whatsapp_853339" transform="translate(28.000000, 183.000000)">
                    <path d="M11.5,23 C17.8512746,23 23,17.8512746 23,11.5 C23,5.14872538 17.8512746,0 11.5,0 C5.14872538,0 0,5.14872538 0,11.5 C0,13.0904052 0.656694398,15.2366471 1.9700832,17.9387259 L0,23 L5.05982463,21.0289354 C7.76245141,22.3429785 9.90917654,23 11.5,23 Z" id="Oval-3"></path>
                    <path d="M14.0469008,17.0018134 C12.7476096,17.0018134 10.0855589,15.4531817 8.81709529,14.1838114 C7.68282229,13.0495384 6,10.35394 6,8.95491263 C6,7.55679196 7.49241675,6 8.50337949,6 L8.64391691,6 L8.75,6.0906693 C9.01838114,6.31915595 10.3711672,7.48153643 10.6422684,8.01013848 C11.0339598,8.77357402 10.0764919,9.86704583 9.5714639,10.3675404 C9.79723046,10.652242 10.3104187,11.2615397 11.0248928,11.9760138 C11.6985658,12.6505935 12.5200297,13.0141774 12.9017474,13.1592483 C13.2335971,12.8328388 13.9108968,12.2498351 14.5301682,12.2498351 L14.6208375,12.2598088 L14.9971151,12.3622651 C15.5211836,12.6315529 16.6826574,13.9843389 16.9093307,14.2518134 L17,14.3588032 L17,14.4984339 C17,15.5103033 15.4450214,17.0018134 14.0469008,17.0018134 Z" id="Shape" fill-rule="nonzero"></path>
                </g>
            </g>
        </g>
    </g>
</svg>