<?xml version="1.0" encoding="UTF-8"?>
<svg width="25px" height="20px" viewBox="0 0 25 20" version="1.1" xmlns="http://www.w3.org/2000/svg" xmlns:xlink="http://www.w3.org/1999/xlink">
    <!-- Generator: Sketch 50 (54983) - http://www.bohemiancoding.com/sketch -->
    <title>sound</title>
    <desc>Created with Sketch.</desc>
    <defs></defs>
    <g id="Page-1" stroke="none" stroke-width="1" fill="none" fill-rule="evenodd">
        <g id="Story-Coffee-video" transform="translate(-1194.000000, -830.000000)" stroke="#FFFFFF">
            <g id="video">
                <g id="Group" transform="translate(56.000000, 250.000000)">
                    <g id="Video" transform="translate(94.000000, 0.000000)">
                        <g id="volume" transform="translate(1044.000000, 580.000000)">
                            <g id="sound">
                                <path d="M12.2512096,1.52534027 L5.10235283,6.29545455 L2.00668713,6.29545455 C1.17138543,6.29545455 0.5,6.96565909 0.5,7.79546852 L0.5,11.5227133 C0.5,12.3563285 1.17071179,13.0227273 2.00668713,13.0227273 L5.10235283,13.0227273 L12.2512096,17.7928415 C12.8377137,18.1841896 13.1363636,18.0251825 13.1363636,17.3235583 L13.1363636,1.99462351 C13.1363636,1.29302149 12.8376873,1.13400979 12.2512096,1.52534027 Z" id="Combined-Shape"></path>
                                <path d="M15.9866015,1.17867497 C21.2314972,2.08466194 23.8539451,4.92974244 23.8539451,9.71391646 C23.8539451,14.4980905 21.2314972,17.5111279 15.9866015,18.7530288" id="Path-8" stroke-linecap="round"></path>
                                <path d="M15.9866015,4 C19.3288672,4.87606965 21,6.879335 21,10.009796 C21,13.1402571 19.3288672,15.1469409 15.9866015,16.0298474" id="Path-8" stroke-linecap="round"></path>
                                <path d="M15.9866015,6.84427621 C17.3288672,7.27977639 18,8.3143761 18,9.94807533 C18,11.5817746 17.3288672,12.6163743 15.9866015,13.0518745" id="Path-8" stroke-linecap="round"></path>
                            </g>
                        </g>
                    </g>
                </g>
            </g>
        </g>
    </g>
</svg>