<?xml version="1.0" encoding="UTF-8"?>
<svg width="11px" height="22px" viewBox="0 0 11 22" version="1.1" xmlns="http://www.w3.org/2000/svg" xmlns:xlink="http://www.w3.org/1999/xlink">
    <!-- Generator: Sketch 50 (54983) - http://www.bohemiancoding.com/sketch -->
    <title>FB Copy</title>
    <desc>Created with Sketch.</desc>
    <defs></defs>
    <g id="Page-1" stroke="none" stroke-width="1" fill="none" fill-rule="evenodd">
        <g id="Salt-Story-Desktop" transform="translate(-313.000000, -1158.000000)" fill-rule="nonzero" stroke="#FFFFFF">
            <g id="Shaerd" transform="translate(279.000000, 1128.000000)">
                <path d="M44.293314,37.4760919 L41.1283378,37.4760919 L41.1283378,35.4003312 C41.1283378,34.6207824 41.645001,34.4390395 42.0089008,34.4390395 C42.3719727,34.4390395 44.2423929,34.4390395 44.2423929,34.4390395 L44.2423929,31.0120058 L41.1664252,31 C37.7518112,31 36.9747464,33.5559925 36.9747464,35.1916787 L36.9747464,37.4760919 L35,37.4760919 L35,41.0074519 L36.9747464,41.0074519 C36.9747464,45.5394328 36.9747464,51 36.9747464,51 L41.1283378,51 C41.1283378,51 41.1283378,45.4856137 41.1283378,41.0074519 L43.9310702,41.0074519 L44.293314,37.4760919 Z" id="FB-Copy"></path>
            </g>
        </g>
    </g>
</svg>